# This file uses centimeters as units for non-parametric coordinates.

mtllib tapabote.mtl
g default
v 0.109193 -0.019708 0.363531
v 0.131667 -0.019708 0.264481
v 0.122433 -0.019708 0.163333
v 0.082395 -0.019708 0.069988
v 0.015473 -0.019708 -0.006415
v -0.071786 -0.019708 -0.058399
v -0.170838 -0.019708 -0.080874
v -0.271984 -0.019708 -0.071641
v -0.365329 -0.019708 -0.031603
v -0.441732 -0.019708 0.035321
v -0.493716 -0.019708 0.122579
v -0.516191 -0.019708 0.221630
v -0.506958 -0.019708 0.322778
v -0.466920 -0.019708 0.416122
v -0.399997 -0.019708 0.492526
v -0.312739 -0.019708 0.544510
v -0.213688 -0.019708 0.566985
v -0.112540 -0.019708 0.557751
v -0.019194 -0.019708 0.517712
v 0.057208 -0.019708 0.450789
v 0.109193 0.057331 0.363531
v 0.131667 0.057331 0.264481
v 0.122433 0.057331 0.163333
v 0.082395 0.057331 0.069988
v 0.015473 0.057331 -0.006415
v -0.071786 0.057331 -0.058399
v -0.170838 0.057331 -0.080874
v -0.271984 0.057331 -0.071641
v -0.365329 0.057331 -0.031603
v -0.441732 0.057331 0.035321
v -0.493716 0.057331 0.122579
v -0.516191 0.057331 0.221630
v -0.506958 0.057331 0.322778
v -0.466920 0.057331 0.416122
v -0.399997 0.057331 0.492526
v -0.312739 0.057331 0.544510
v -0.213688 0.057331 0.566985
v -0.112540 0.057331 0.557751
v -0.019194 0.057331 0.517712
v 0.057208 0.057331 0.450789
v -0.192261 -0.019708 0.243055
v -0.192261 0.057331 0.243055
vn 0.928587 0.000000 0.371115
vn 0.997820 0.000000 0.065992
vn 0.928587 0.000000 0.371115
vn 0.997820 0.000000 0.065992
vn 0.997820 0.000000 0.065992
vn 0.969377 0.000000 -0.245576
vn 0.997820 0.000000 0.065992
vn 0.969377 0.000000 -0.245576
vn 0.969377 0.000000 -0.245576
vn 0.846047 0.000000 -0.533109
vn 0.969377 0.000000 -0.245576
vn 0.846047 0.000000 -0.533109
vn 0.846047 0.000000 -0.533109
vn 0.639897 0.000000 -0.768460
vn 0.846047 0.000000 -0.533109
vn 0.639897 0.000000 -0.768460
vn 0.639897 0.000000 -0.768460
vn 0.371113 0.000000 -0.928588
vn 0.639897 0.000000 -0.768460
vn 0.371113 0.000000 -0.928588
vn 0.371113 0.000000 -0.928588
vn 0.065997 0.000000 -0.997820
vn 0.371113 0.000000 -0.928588
vn 0.065997 0.000000 -0.997820
vn 0.065997 0.000000 -0.997820
vn -0.245578 0.000000 -0.969377
vn 0.065997 0.000000 -0.997820
vn -0.245578 0.000000 -0.969377
vn -0.245578 0.000000 -0.969377
vn -0.533114 0.000000 -0.846044
vn -0.245578 0.000000 -0.969377
vn -0.533114 0.000000 -0.846044
vn -0.533114 0.000000 -0.846044
vn -0.768461 0.000000 -0.639897
vn -0.533114 0.000000 -0.846044
vn -0.768461 0.000000 -0.639897
vn -0.768461 0.000000 -0.639897
vn -0.928587 0.000000 -0.371115
vn -0.768461 0.000000 -0.639897
vn -0.928587 0.000000 -0.371115
vn -0.928587 0.000000 -0.371115
vn -0.997819 0.000000 -0.066007
vn -0.928587 0.000000 -0.371115
vn -0.997819 0.000000 -0.066007
vn -0.997819 0.000000 -0.066007
vn -0.969378 0.000000 0.245574
vn -0.997819 0.000000 -0.066007
vn -0.969378 0.000000 0.245574
vn -0.969378 0.000000 0.245574
vn -0.846045 0.000000 0.533112
vn -0.969378 0.000000 0.245574
vn -0.846045 0.000000 0.533112
vn -0.846045 0.000000 0.533112
vn -0.639897 0.000000 0.768460
vn -0.846045 0.000000 0.533112
vn -0.639897 0.000000 0.768460
vn -0.639897 0.000000 0.768460
vn -0.371110 0.000000 0.928589
vn -0.639897 0.000000 0.768460
vn -0.371110 0.000000 0.928589
vn -0.371110 0.000000 0.928589
vn -0.065996 0.000000 0.997820
vn -0.371110 0.000000 0.928589
vn -0.065996 0.000000 0.997820
vn -0.065996 0.000000 0.997820
vn 0.245581 0.000000 0.969376
vn -0.065996 0.000000 0.997820
vn 0.245581 0.000000 0.969376
vn 0.245581 0.000000 0.969376
vn 0.533111 0.000000 0.846045
vn 0.245581 0.000000 0.969376
vn 0.533111 0.000000 0.846045
vn 0.533111 0.000000 0.846045
vn 0.768456 0.000000 0.639903
vn 0.533111 0.000000 0.846045
vn 0.768456 0.000000 0.639903
vn 0.768456 0.000000 0.639903
vn 0.928587 0.000000 0.371115
vn 0.768456 0.000000 0.639903
vn 0.928587 0.000000 0.371115
vn 0.000000 -1.000000 0.000000
vn 0.000000 -1.000000 0.000000
vn 0.000000 -1.000000 0.000000
vn 0.000000 -1.000000 0.000000
vn 0.000000 -1.000000 0.000000
vn 0.000000 -1.000000 0.000000
vn 0.000000 -1.000000 0.000000
vn 0.000000 -1.000000 0.000000
vn 0.000000 -1.000000 0.000000
vn 0.000000 -1.000000 0.000000
vn 0.000000 -1.000000 0.000000
vn 0.000000 -1.000000 0.000000
vn 0.000000 -1.000000 0.000000
vn 0.000000 -1.000000 0.000000
vn 0.000000 -1.000000 0.000000
vn 0.000000 -1.000000 0.000000
vn 0.000000 -1.000000 0.000000
vn 0.000000 -1.000000 0.000000
vn 0.000000 -1.000000 0.000000
vn 0.000000 -1.000000 0.000000
vn 0.000000 -1.000000 0.000000
vn 0.000000 -1.000000 0.000000
vn 0.000000 -1.000000 0.000000
vn 0.000000 -1.000000 0.000000
vn 0.000000 -1.000000 0.000000
vn 0.000000 -1.000000 0.000000
vn 0.000000 -1.000000 0.000000
vn 0.000000 -1.000000 0.000000
vn 0.000000 -1.000000 0.000000
vn 0.000000 -1.000000 0.000000
vn -0.000001 -1.000000 -0.000001
vn 0.000000 -1.000000 0.000000
vn 0.000000 -1.000000 0.000000
vn -0.000001 -1.000000 -0.000001
vn -0.000001 -1.000000 -0.000001
vn 0.000000 -1.000000 0.000000
vn 0.000000 -1.000000 0.000000
vn -0.000001 -1.000000 -0.000001
vn 0.000000 -1.000000 0.000000
vn 0.000000 -1.000000 0.000000
vn 0.000000 -1.000000 0.000000
vn 0.000000 -1.000000 0.000000
vn -0.000001 -1.000000 -0.000001
vn 0.000000 -1.000000 0.000000
vn 0.000000 -1.000000 0.000000
vn 0.000000 -1.000000 0.000000
vn -0.000001 -1.000000 -0.000001
vn 0.000000 -1.000000 0.000000
vn 0.000000 -1.000000 0.000000
vn 0.000000 -1.000000 0.000000
vn 0.000000 -1.000000 0.000000
vn 0.000000 -1.000000 0.000000
vn 0.000000 -1.000000 0.000000
vn 0.000000 -1.000000 0.000000
vn 0.000000 -1.000000 0.000000
vn 0.000000 -1.000000 0.000000
vn 0.000000 -1.000000 0.000000
vn 0.000000 -1.000000 0.000000
vn 0.000000 -1.000000 0.000000
vn 0.000000 -1.000000 0.000000
vn 0.000000 1.000000 0.000000
vn -0.000000 1.000000 -0.000000
vn -0.000000 1.000000 -0.000000
vn -0.000000 1.000000 -0.000000
vn -0.000000 1.000000 -0.000000
vn -0.000000 1.000000 -0.000000
vn -0.000000 1.000000 -0.000000
vn 0.000000 1.000000 0.000000
vn -0.000000 1.000000 -0.000000
vn 0.000000 1.000000 0.000000
vn 0.000000 1.000000 0.000000
vn -0.000000 1.000000 -0.000000
vn 0.000000 1.000000 0.000000
vn 0.000000 1.000000 0.000000
vn -0.000000 1.000000 -0.000000
vn 0.000000 1.000000 0.000000
vn 0.000000 1.000000 0.000000
vn -0.000000 1.000000 -0.000000
vn 0.000000 1.000000 0.000000
vn 0.000000 1.000000 0.000000
vn -0.000000 1.000000 -0.000000
vn 0.000000 1.000000 0.000000
vn 0.000000 1.000000 0.000000
vn -0.000000 1.000000 -0.000000
vn 0.000000 1.000000 0.000000
vn 0.000000 1.000000 0.000000
vn -0.000000 1.000000 -0.000000
vn 0.000000 1.000000 0.000000
vn 0.000000 1.000000 0.000000
vn -0.000000 1.000000 -0.000000
vn 0.000000 1.000000 0.000000
vn 0.000000 1.000000 0.000000
vn -0.000000 1.000000 -0.000000
vn 0.000000 1.000000 0.000000
vn 0.000000 1.000000 0.000000
vn -0.000000 1.000000 -0.000000
vn 0.000000 1.000000 0.000000
vn 0.000000 1.000000 0.000000
vn -0.000000 1.000000 -0.000000
vn 0.000000 1.000000 0.000000
vn 0.000000 1.000000 0.000000
vn -0.000000 1.000000 -0.000000
vn 0.000000 1.000000 0.000000
vn 0.000000 1.000000 0.000000
vn -0.000000 1.000000 -0.000000
vn 0.000000 1.000000 0.000000
vn 0.000000 1.000000 0.000000
vn -0.000000 1.000000 -0.000000
vn 0.000000 1.000000 0.000000
vn 0.000000 1.000000 0.000000
vn -0.000000 1.000000 -0.000000
vn 0.000000 1.000000 0.000000
vn 0.000000 1.000000 0.000000
vn -0.000000 1.000000 -0.000000
vn 0.000000 1.000000 0.000000
vn 0.000000 1.000000 0.000000
vn -0.000000 1.000000 -0.000000
vn 0.000000 1.000000 0.000000
vn 0.000000 1.000000 0.000000
vn -0.000000 1.000000 -0.000000
s 1
g cuarto:polySurface7789 cuarto:polySurface5285
usemtl cuarto:cuarto:cuarto:lambert32SG2
f 1//1 2//2 21//3
f 21//3 2//2 22//4
s 2
f 2//5 3//6 22//7
f 22//7 3//6 23//8
s 3
f 3//9 4//10 23//11
f 23//11 4//10 24//12
s 4
f 4//13 5//14 24//15
f 24//15 5//14 25//16
s 5
f 5//17 6//18 25//19
f 25//19 6//18 26//20
s 6
f 6//21 7//22 26//23
f 26//23 7//22 27//24
s 7
f 7//25 8//26 27//27
f 27//27 8//26 28//28
s 8
f 8//29 9//30 28//31
f 28//31 9//30 29//32
s 9
f 9//33 10//34 29//35
f 29//35 10//34 30//36
s 10
f 10//37 11//38 30//39
f 30//39 11//38 31//40
s 11
f 11//41 12//42 31//43
f 31//43 12//42 32//44
s 12
f 12//45 13//46 32//47
f 32//47 13//46 33//48
s 13
f 13//49 14//50 33//51
f 33//51 14//50 34//52
s 14
f 14//53 15//54 34//55
f 34//55 15//54 35//56
s 15
f 15//57 16//58 35//59
f 35//59 16//58 36//60
s 16
f 16//61 17//62 36//63
f 36//63 17//62 37//64
s 17
f 17//65 18//66 37//67
f 37//67 18//66 38//68
s 18
f 18//69 19//70 38//71
f 38//71 19//70 39//72
s 19
f 19//73 20//74 39//75
f 39//75 20//74 40//76
s 20
f 20//77 1//78 40//79
f 40//79 1//78 21//80
s off
f 2//81 1//82 41//83
f 3//84 2//85 41//86
f 4//87 3//88 41//89
f 5//90 4//91 41//92
f 6//93 5//94 41//95
f 7//96 6//97 41//98
f 8//99 7//100 41//101
f 9//102 8//103 41//104
f 10//105 9//106 41//107
f 11//108 10//109 41//110
f 12//111 11//112 41//113
f 13//114 12//115 41//116
f 14//117 13//118 41//119
f 15//120 14//121 41//122
f 16//123 15//124 41//125
f 17//126 16//127 41//128
f 18//129 17//130 41//131
f 19//132 18//133 41//134
f 20//135 19//136 41//137
f 1//138 20//139 41//140
f 21//141 22//142 42//143
f 22//144 23//145 42//146
f 23//147 24//148 42//149
f 24//150 25//151 42//152
f 25//153 26//154 42//155
f 26//156 27//157 42//158
f 27//159 28//160 42//161
f 28//162 29//163 42//164
f 29//165 30//166 42//167
f 30//168 31//169 42//170
f 31//171 32//172 42//173
f 32//174 33//175 42//176
f 33//177 34//178 42//179
f 34//180 35//181 42//182
f 35//183 36//184 42//185
f 36//186 37//187 42//188
f 37//189 38//190 42//191
f 38//192 39//193 42//194
f 39//195 40//196 42//197
f 40//198 21//199 42//200
