# This file uses centimeters as units for non-parametric coordinates.

mtllib pedalbote.mtl
g default
v -0.114946 -0.019256 0.017842
v 0.000652 -0.019256 0.114100
v -0.114946 0.016530 0.017842
v 0.000652 0.016530 0.114100
v -0.047391 0.016530 -0.063285
v 0.068206 0.016530 0.032973
v -0.047391 -0.019256 -0.063285
v 0.068206 -0.019256 0.032973
vn -0.639897 0.000000 0.768461
vn -0.639897 0.000000 0.768461
vn -0.639897 0.000000 0.768461
vn -0.639897 0.000000 0.768461
vn 0.000000 1.000000 0.000000
vn 0.000000 1.000000 0.000000
vn 0.000000 1.000000 0.000000
vn 0.000000 1.000000 0.000000
vn 0.639897 0.000000 -0.768461
vn 0.639897 0.000000 -0.768461
vn 0.639897 0.000000 -0.768461
vn 0.639897 0.000000 -0.768461
vn 0.000000 -1.000000 0.000000
vn 0.000000 -1.000000 0.000000
vn 0.000000 -1.000000 0.000000
vn 0.000000 -1.000000 0.000000
vn 0.768460 0.000000 0.639897
vn 0.768460 0.000000 0.639897
vn 0.768460 0.000000 0.639897
vn 0.768460 0.000000 0.639897
vn -0.768460 0.000000 -0.639897
vn -0.768460 0.000000 -0.639897
vn -0.768460 0.000000 -0.639897
vn -0.768460 0.000000 -0.639897
s 1
g cuarto:polySurface7788 cuarto:polySurface5285
usemtl cuarto:pasted__lambert4SG6
f 1//1 2//2 3//3
f 3//3 2//2 4//4
s 2
f 3//5 4//6 5//7
f 5//7 4//6 6//8
s 3
f 5//9 6//10 7//11
f 7//11 6//10 8//12
s 4
f 7//13 8//14 1//15
f 1//15 8//14 2//16
s 5
f 2//17 8//18 4//19
f 4//19 8//18 6//20
s 6
f 7//21 1//22 5//23
f 5//23 1//22 3//24
